<?xml version="1.0" standalone="no"?>
<!DOCTYPE svg PUBLIC "-//W3C//DTD SVG 20010904//EN"
 "http://www.w3.org/TR/2001/REC-SVG-20010904/DTD/svg10.dtd">
<svg version="1.0" xmlns="http://www.w3.org/2000/svg"
 width="267.000000pt" height="267.000000pt" viewBox="0 0 267.000000 267.000000"
 preserveAspectRatio="xMidYMid meet">
<metadata>
Created by potrace 1.14, written by Peter Selinger 2001-2017
</metadata>
<g transform="translate(0.000000,267.000000) scale(0.100000,-0.100000)"
fill="#000000" stroke="none">
<path d="M1065 2641 c-351 -123 -672 -387 -853 -701 -237 -412 -210 -907 71
-1329 300 -448 769 -671 1242 -588 317 56 607 234 875 537 81 92 220 325 203
340 -4 4 -39 33 -78 65 -110 91 -165 137 -219 182 -27 24 -53 43 -56 43 -4 0
-19 -26 -33 -58 -106 -232 -303 -435 -514 -528 -141 -63 -328 -82 -462 -47
-294 77 -547 338 -647 668 -26 83 -25 285 0 370 50 165 147 298 306 421 122
94 248 163 379 207 39 14 74 27 77 30 5 4 -24 68 -143 320 -26 53 -51 97 -57
96 -6 0 -47 -13 -91 -28z"/>
<path d="M1275 1888 c-18 -14 -25 -29 -25 -53 0 -63 73 -91 116 -44 53 59 -29
146 -91 97z"/>
<path d="M1504 1710 c-90 -45 -112 -167 -42 -240 72 -76 184 -66 241 22 48 75
29 163 -46 212 -50 32 -97 34 -153 6z"/>
<path d="M1182 1440 c-116 -52 -82 -230 43 -230 115 0 171 155 77 216 -45 30
-77 33 -120 14z"/>
<path d="M857 1086 c23 -58 74 -134 128 -189 262 -265 702 -234 921 65 35 47
84 139 84 156 0 5 -258 9 -574 9 l-575 1 16 -42z"/>
</g>
</svg>
