<?xml version="1.0" standalone="no"?>
<!DOCTYPE svg PUBLIC "-//W3C//DTD SVG 20010904//EN"
 "http://www.w3.org/TR/2001/REC-SVG-20010904/DTD/svg10.dtd">
<svg version="1.0" xmlns="http://www.w3.org/2000/svg"
 width="70.000000pt" height="70.000000pt" viewBox="0 0 70.000000 70.000000"
 preserveAspectRatio="xMidYMid meet">
<metadata>
Created by potrace 1.14, written by Peter Selinger 2001-2017
</metadata>
<g transform="translate(0.000000,70.000000) scale(0.100000,-0.100000)"
fill="#000000" stroke="none">
<path d="M266 674 c-18 -19 -23 -33 -20 -58 3 -26 -3 -40 -29 -68 -27 -29 -40
-36 -71 -36 -48 0 -79 -29 -79 -72 0 -43 33 -74 78 -73 51 1 105 -50 105 -100
0 -80 92 -110 135 -43 34 52 -14 123 -75 111 -15 -3 -36 6 -61 26 -35 28 -38
33 -35 77 3 64 46 112 100 112 46 0 76 28 76 73 0 65 -78 97 -124 51z"/>
<path d="M136 627 c-24 -17 -17 -51 11 -55 30 -4 49 31 27 52 -19 19 -16 19
-38 3z"/>
<path d="M353 509 c-34 -12 -56 -53 -48 -89 8 -35 52 -63 87 -55 16 4 33 -4
58 -26 29 -26 35 -38 37 -74 1 -56 -45 -118 -86 -114 -40 4 -70 -10 -85 -39
-12 -23 -12 -33 -1 -58 14 -34 24 -43 56 -49 47 -9 95 43 83 92 -3 11 9 33 31
57 29 31 41 37 65 34 42 -6 83 29 83 71 0 43 -32 74 -77 75 -51 1 -115 56
-108 92 10 53 -45 102 -95 83z"/>
<path d="M521 461 c-21 -13 -9 -56 16 -59 27 -4 50 30 30 45 -24 19 -33 22
-46 14z"/>
<path d="M131 282 c-8 -15 -7 -23 4 -32 23 -19 50 -8 50 20 0 32 -39 41 -54
12z"/>
<path d="M521 117 c-13 -16 -6 -43 13 -50 6 -3 21 2 31 9 15 12 17 18 9 32
-15 22 -38 26 -53 9z"/>
</g>
</svg>
